<svg width="56" height="56" viewBox="0 0 56 56" fill="none" xmlns="http://www.w3.org/2000/svg">
<path d="M28 39.1111C34.1364 39.1111 39.1111 34.1364 39.1111 28C39.1111 21.8635 34.1364 16.8889 28 16.8889C21.8635 16.8889 16.8889 21.8635 16.8889 28C16.8889 34.1364 21.8635 39.1111 28 39.1111Z" stroke="white" stroke-width="5" stroke-linecap="round" stroke-linejoin="round"/>
<path d="M3 39.1111V16.8889C3 9.21828 9.21828 3 16.8889 3H39.1111C46.7817 3 53 9.21828 53 16.8889V39.1111C53 46.7817 46.7817 53 39.1111 53H16.8889C9.21828 53 3 46.7817 3 39.1111Z" stroke="white" stroke-width="5"/>
<path d="M43.2778 12.7496L43.3056 12.7188" stroke="white" stroke-width="5" stroke-linecap="round" stroke-linejoin="round"/>
</svg>
